<svg xmlns="http://www.w3.org/2000/svg" xmlns:xlink="http://www.w3.org/1999/xlink" viewBox="0 0 248.18 119.15"><defs>
<style>.cls-1{fill:#1d1d1b;fill-rule:evenodd;}</style>
<symbol id="aquamarine_name" data-name="aquamarine_name" viewBox="0 0 248.18 26.2">
<path id="aquamarine" class="cls-1" d="M10.7,3.43c-1.65,3.52-3.29,6.9-4.93,10.41h9.88C14,10.34,12.4,7,10.7,3.43ZM36.12,20.06a7.5,7.5,0,0,1-3.93-1.6,8.24,8.24,0,0,1-1.74-2.08,10.63,10.63,0,0,1-1.35-6.75c.38-3.77,2.78-7.57,7.45-7.83a8.9,8.9,0,0,1,1.19,0c4.55.43,7,4.08,7.34,7.82a10.62,10.62,0,0,1-1.35,6.75,7.34,7.34,0,0,1-7.61,3.68Zm6.44.74c1-.71,2-1.34,2.83-2.1A10.32,10.32,0,0,0,46,3.84,12.51,12.51,0,0,0,40.13.38h0L39.34.2h0C39,.15,38.76.1,38.46.07L37.83,0h-.52a12.34,12.34,0,0,0-9.14,3.84,10.32,10.32,0,0,0,.38,14.63,12.49,12.49,0,0,0,11.34,3.12L47,26.2l2.15-1.75L42.57,20.8ZM220.62.62V16.08L203.34.62H201.9V21.35h2V5.73l17.49,15.62h1.23V.62Zm-41.94,5.8c0,3.14-2.49,3.8-4.58,3.8h-7.48V2.61h7.45c2.1,0,4.61.66,4.61,3.82Zm-.84,5.41c3-.78,4.67-2.69,4.67-5.44,0-3.56-3-5.77-7.73-5.77H163.23V21.35h3.4V12.23h7.65l4.33,9.12h3.76l-4.52-9.52ZM125.84.62l-7.69,16.24L110.46.62H106V21.35h2V3.29l8.55,18.06h1.74l8.61-18.22V21.35h3.4V.62Zm67.55,0q0,10.19,0,20.39a2.85,2.85,0,0,1,0,.29h-3.28v-.76q0-9.63,0-19.26c0-.22,0-.44,0-.66ZM72.44.75h2v.66c0,4.12,0,8.23,0,12.35a7.73,7.73,0,0,1-1.35,4.56,7.88,7.88,0,0,1-4.47,3.12A13.48,13.48,0,0,1,59.48,21a7.19,7.19,0,0,1-4.66-6.86c-.08-4.36,0-13.25,0-13.37h3.36c0,.28,0,8.42,0,12.25a11.21,11.21,0,0,0,.33,2.74,5.15,5.15,0,0,0,4.12,3.86,10.18,10.18,0,0,0,5.61-.24,6,6,0,0,0,4.21-5.69c0-4.05,0-12.63,0-13ZM248.18.63v2H233.62V9.5H242v2h-8.39v7.83h14.55v2H230.24V.63ZM146,3.43c-1.65,3.52-3.29,6.9-4.93,10.41h9.88c-1.68-3.49-3.25-6.86-5-10.41Zm-5.86,12.39c-.84,1.84-1.76,3.66-2.6,5.51h-2.24c3.32-6.93,6.49-13.72,9.77-20.58h3.44c3.28,6.83,6.43,13.69,9.75,20.6H154.5c-.89-1.83-1.72-3.67-2.62-5.53ZM88.76,3.43c-1.65,3.52-3.29,6.9-4.93,10.41h9.88C92,10.34,90.46,7,88.76,3.43ZM82.9,15.82c-.84,1.84-1.76,3.66-2.6,5.51H78.06C81.38,14.4,84.55,7.61,87.83.75h3.44c3.28,6.83,6.43,13.69,9.75,20.6H97.27c-.89-1.83-1.72-3.67-2.62-5.53Zm-78.06,0c-.84,1.84-1.76,3.66-2.6,5.51H0C3.32,14.4,6.49,7.61,9.77.75h3.44c3.28,6.83,6.43,13.69,9.75,20.6H19.21c-.89-1.83-1.72-3.67-2.62-5.53Z"/>
</symbol>
<symbol id="aquamarine_jewelry" data-name="aquamarine_jewelry" viewBox="0 0 82.37 8.68">
<path id="jewelry" class="cls-1" d="M39.66,8.63h7.1V7.27H41.07V4.89h5V3.49h-5V1.43h5.69V.06h-7.1V8.63ZM3.73,5A2.85,2.85,0,0,1,3.3,6.82a1.63,1.63,0,0,1-1.23.5l-.36,0a2.55,2.55,0,0,1-.88-.37L.75,6.87,0,8,.06,8a3.1,3.1,0,0,0,1.48.61,4.38,4.38,0,0,0,.56,0,3.27,3.27,0,0,0,2.22-.79A3.2,3.2,0,0,0,5.16,5.4V.07H3.73V5ZM80.67.06,77.8,3.6,75.07.06H73.23L77.07,5V8.63h1.45V4.95L82.37.06ZM52.91.06H51.43V8.63h7.1V7.26H52.91V.06ZM31.54,6l-2-6,0-.06H28.33l-2,6-2-6,0-.06H22.86l2.92,8.63h1l2.12-6.34L31,8.57l0,.05h1.07L35,.11,35,0H33.55l-2,6ZM67.57,4a3.38,3.38,0,0,1-.45.09H63.54V1.47H66.8a3,3,0,0,1,.79.1,1.32,1.32,0,0,1,1,1.19,1.33,1.33,0,0,1-1,1.21Zm.56,1.34A2.57,2.57,0,0,0,70,2.42,2.63,2.63,0,0,0,67.8.15,9.48,9.48,0,0,0,66.63.06H62.16V8.68h1.38V5.49h2l2.91,3.17,0,0h1.88l-3-3.25a5.75,5.75,0,0,0,.75-.12ZM11.27,8.63h7.1V7.27H12.68V4.89h5V3.49h-5V1.43h5.69V.06h-7.1V8.63Z"/></symbol>
<symbol id="aquamarine_star" data-name="aquamarine_star" viewBox="0 0 52.34 52.29">
<path id="star" class="cls-1" d="M32.84,34.27c-4.09,4.51-6.24,10.69-6.67,18h-.23c-.43-7.33-2.58-13.51-6.67-18h0a21.9,21.9,0,0,0-4.78-4A31.48,31.48,0,0,0,0,26.26V26a31,31,0,0,0,15-4.37C21.89,17.17,25.38,9.56,25.94,0h.24c.64,11,5.18,19.45,14.34,23.49h0l0,0,.4.17A35.45,35.45,0,0,0,52.34,26v0h0v.15h0v0a34.1,34.1,0,0,0-10.8,2.19c-.41.17-.81.31-1.19.43a22.45,22.45,0,0,0-7.52,5.39Zm2.77-8.12h0v0c-2.82,0-9.43-6.77-9.43-9.49h-.05c0,2.71-6.61,9.49-9.43,9.49v0h0v0c2.82,0,9.43,6.77,9.43,9.49h.05c0-2.72,6.61-9.49,9.43-9.49v0Z"/>
</symbol>
</defs>
<title>Ресурс 4</title>
<g id="Слой_2" data-name="Слой 2">
<g id="Слой_1-2" data-name="Слой 1">
<use width="248.18" height="26.2" transform="translate(0 71.98)" xlink:href="#aquamarine_name"/>
<use width="82.37" height="8.68" transform="translate(77.5 110.46)" xlink:href="#aquamarine_jewelry"/>
<use width="52.34" height="52.29" transform="translate(99.48)" xlink:href="#aquamarine_star"/>
</g>
</g>
</svg>