<svg xmlns="http://www.w3.org/2000/svg" viewBox="0 0 297.8 35.6"><defs><style>.cls-1,.cls-2{fill:#1d1d1b;}.cls-2{fill-rule:evenodd;}</style></defs><title>Ресурс 5</title><g id="Слой_2" data-name="Слой 2"><g id="Слой_1-2" data-name="Слой 1"><path class="cls-1" d="M22.36,23.33c-2.78,3.07-4.25,7.28-4.54,12.27h-.16c-.29-5-1.76-9.2-4.54-12.27h0a14.91,14.91,0,0,0-3.26-2.69A21.44,21.44,0,0,0,0,17.88v-.16a21.14,21.14,0,0,0,10.22-3C14.91,11.69,17.28,6.51,17.66,0h.16c.44,7.5,3.52,13.24,9.76,16h0l.05,0,.22.09a24.09,24.09,0,0,0,7.76,1.6v0h0v.1h0v0a23.21,23.21,0,0,0-7.36,1.49l-.81.3a15.29,15.29,0,0,0-5.12,3.67Zm1.89-5.53h0v0c-1.92,0-6.42-4.61-6.42-6.46h0c0,1.85-4.5,6.46-6.42,6.46v0h0v0c1.92,0,6.42,4.61,6.42,6.46h0c0-1.85,4.5-6.46,6.42-6.46v0Z"/><path class="cls-2" d="M60.64,11.76c-1.65,3.53-3.3,6.92-4.95,10.44h9.91c-1.68-3.5-3.26-6.88-5-10.44Zm25.5,16.68a7.52,7.52,0,0,1-3.94-1.6,8.29,8.29,0,0,1-1.74-2.09A10.66,10.66,0,0,1,79.1,18c.38-3.78,2.79-7.59,7.47-7.86a8.72,8.72,0,0,1,1.19,0c4.57.43,7,4.09,7.37,7.84a10.67,10.67,0,0,1-1.36,6.77,7.37,7.37,0,0,1-7.63,3.69Zm6.46.75c1-.71,2-1.34,2.84-2.11a10.35,10.35,0,0,0,.63-14.91A12.58,12.58,0,0,0,90.16,8.7h0l-.79-.18h0c-.29-.05-.58-.1-.88-.13l-.64-.05h-.52a12.38,12.38,0,0,0-9.17,3.85,10.35,10.35,0,0,0,.38,14.68A12.54,12.54,0,0,0,89.92,30L97,34.6l2.15-1.76-6.56-3.66Zm178-20.24V24.45L253.25,8.94H251.8v20.8h2V14.07l17.55,15.67h1.23V8.94Zm-41.43,5.82c0,3.15-2.5,3.81-4.59,3.81h-7.5V10.93h7.48c2.11,0,4.62.66,4.62,3.83Zm-.84,5.42c3-.78,4.68-2.7,4.68-5.45,0-3.57-3-5.79-7.75-5.79H213.65v20.8h3.41V20.59h7.68l4.34,9.15h3.77l-4.53-9.55ZM176.15,8.94l-7.72,16.29L160.72,8.94h-4.49v20.8h2V11.62l8.58,18.12h1.74l8.64-18.27V29.74h3.41V8.94Zm67.14,0q0,10.23,0,20.45a2.72,2.72,0,0,1,0,.29H240v-.76q0-9.66,0-19.32c0-.22,0-.44,0-.66Zm-120.71.11h2v.66c0,4.13,0,8.26,0,12.39a7.78,7.78,0,0,1-1.35,4.58,7.92,7.92,0,0,1-4.48,3.13,13.52,13.52,0,0,1-9.17-.42,7.22,7.22,0,0,1-4.68-6.88c-.08-4.37,0-13.29,0-13.41h3.37c0,.28,0,8.45,0,12.29a11.35,11.35,0,0,0,.33,2.75A5.16,5.16,0,0,0,112.73,28a10.22,10.22,0,0,0,5.63-.25,6,6,0,0,0,4.22-5.71c0-4.06,0-12.67,0-13ZM297.8,8.94v2h-14.6v6.89h8.42v2H283.2v7.86h14.6v2h-18V8.94ZM196.35,11.76c-1.65,3.53-3.3,6.92-4.95,10.44h9.91c-1.68-3.5-3.26-6.88-5-10.44Zm-5.88,12.43c-.84,1.85-1.76,3.68-2.6,5.53h-2.25c3.33-7,6.51-13.76,9.8-20.65h3.45c3.29,6.85,6.45,13.74,9.78,20.67h-3.76c-.89-1.84-1.73-3.69-2.63-5.55ZM138.94,11.76c-1.65,3.53-3.3,6.92-4.95,10.44h9.91c-1.68-3.5-3.26-6.88-5-10.44Zm-5.88,12.43c-.84,1.85-1.76,3.68-2.6,5.53h-2.25c3.33-7,6.51-13.76,9.8-20.65h3.45c3.29,6.85,6.45,13.74,9.78,20.67h-3.76c-.89-1.84-1.73-3.69-2.63-5.55Zm-78.3,0C53.92,26,53,27.87,52.15,29.72H49.9c3.33-7,6.51-13.76,9.8-20.65h3.45c3.29,6.85,6.45,13.74,9.78,20.67H69.18c-.89-1.84-1.73-3.69-2.63-5.55Z"/></g></g></svg>