<svg xmlns="http://www.w3.org/2000/svg" viewBox="0 0 315.46 63.42"><defs><style>.cls-1,.cls-2{fill:#1d1d1b;}.cls-2{fill-rule:evenodd;}</style></defs><title>Ресурс 6</title><g id="Слой_2" data-name="Слой 2"><g id="Слой_1-2" data-name="Слой 1"><path class="cls-1" d="M33.79,35.26c-4.21,4.64-6.42,11-6.86,18.54h-.24c-.44-7.54-2.65-13.9-6.86-18.54h0a22.52,22.52,0,0,0-4.93-4.07A32.39,32.39,0,0,0,0,27v-.24a31.94,31.94,0,0,0,15.44-4.5C22.53,17.66,26.12,9.83,26.69,0h.24c.66,11.34,5.32,20,14.75,24.17h0l.08,0,.33.14a36.4,36.4,0,0,0,11.73,2.42v0h0V27h0v0a35.07,35.07,0,0,0-11.12,2.25c-.43.17-.83.32-1.22.45a23.1,23.1,0,0,0-7.73,5.55Zm2.86-8.36h0v0c-2.9,0-9.7-7-9.7-9.76H26.9c0,2.79-6.8,9.76-9.7,9.76v0h0v0c2.9,0,9.7,7,9.7,9.76H27c0-2.79,6.8-9.76,9.7-9.76v0Z"/><path class="cls-2" d="M78.23,20.65c-1.65,3.53-3.3,6.92-4.95,10.44H83.2c-1.68-3.5-3.26-6.88-5-10.44Zm25.5,16.68a7.52,7.52,0,0,1-3.94-1.6A8.29,8.29,0,0,1,98,33.64a10.66,10.66,0,0,1-1.36-6.77c.38-3.78,2.79-7.59,7.47-7.86a8.72,8.72,0,0,1,1.19,0c4.57.43,7,4.09,7.37,7.84a10.67,10.67,0,0,1-1.36,6.77,7.37,7.37,0,0,1-7.63,3.69Zm6.46.75c1-.71,2-1.34,2.84-2.11a10.35,10.35,0,0,0,.63-14.91,12.58,12.58,0,0,0-5.91-3.47h0l-.79-.18h0c-.29-.05-.58-.1-.88-.13l-.64-.05h-.52a12.38,12.38,0,0,0-9.17,3.85,10.35,10.35,0,0,0,.38,14.68,12.54,12.54,0,0,0,11.37,3.13l7.09,4.63,2.15-1.76-6.56-3.66Zm178-20.24V33.35L270.83,17.84h-1.44v20.8h2V23L289,38.63h1.23V17.84Zm-41.43,5.82c0,3.15-2.5,3.81-4.59,3.81h-7.5V19.83h7.48c2.11,0,4.62.66,4.62,3.83Zm-.84,5.42c3-.78,4.68-2.7,4.68-5.45,0-3.57-3-5.79-7.75-5.79H231.24v20.8h3.41V29.48h7.68l4.34,9.15h3.77l-4.53-9.55ZM193.73,17.84,186,34.13l-7.71-16.29h-4.49v20.8h2V20.52l8.58,18.12h1.74l8.64-18.27V38.63h3.41V17.84Zm67.14,0q0,10.23,0,20.45a2.72,2.72,0,0,1,0,.29h-3.29v-.76q0-9.66,0-19.32c0-.22,0-.44,0-.66ZM140.16,18h2v.66c0,4.13,0,8.26,0,12.39a7.78,7.78,0,0,1-1.35,4.58,7.92,7.92,0,0,1-4.48,3.13,13.52,13.52,0,0,1-9.17-.42,7.22,7.22,0,0,1-4.68-6.88c-.08-4.37,0-13.29,0-13.41h3.37c0,.28,0,8.45,0,12.29a11.35,11.35,0,0,0,.33,2.75,5.16,5.16,0,0,0,4.13,3.87,10.22,10.22,0,0,0,5.63-.25A6,6,0,0,0,140.16,31c0-4.06,0-12.67,0-13Zm175.22-.12v2h-14.6v6.89h8.42v2h-8.41v7.86h14.6v2h-18V17.84ZM213.94,20.65c-1.65,3.53-3.3,6.92-4.95,10.44h9.91c-1.68-3.5-3.26-6.88-5-10.44Zm-5.88,12.43c-.84,1.85-1.76,3.68-2.6,5.53h-2.25c3.33-7,6.51-13.76,9.8-20.65h3.45c3.29,6.85,6.45,13.74,9.78,20.67h-3.76c-.89-1.84-1.73-3.69-2.63-5.55ZM156.53,20.65c-1.65,3.53-3.3,6.92-4.95,10.44h9.91c-1.68-3.5-3.26-6.88-5-10.44Zm-5.88,12.43c-.84,1.85-1.76,3.68-2.6,5.53H145.8c3.33-7,6.51-13.76,9.8-20.65h3.45c3.29,6.85,6.45,13.74,9.78,20.67h-3.76c-.89-1.84-1.73-3.69-2.63-5.55Zm-78.3,0c-.84,1.85-1.76,3.68-2.61,5.53H67.49c3.33-7,6.51-13.76,9.8-20.65h3.45C84,24.81,87.2,31.7,90.53,38.63H86.77c-.89-1.84-1.73-3.69-2.63-5.55Z"/><path class="cls-2" d="M272.62,63.37h7.13V62H274v-2.4h5v-1.4h-5V56.15h5.71V54.77h-7.13v8.6Zm-36-3.65a2.87,2.87,0,0,1-.43,1.84,1.63,1.63,0,0,1-1.23.5,2.2,2.2,0,0,1-.36,0,2.55,2.55,0,0,1-.88-.37l-.09-.05-.75,1.1.06,0a3.1,3.1,0,0,0,1.49.61,4.6,4.6,0,0,0,.56,0,3.29,3.29,0,0,0,2.23-.79,3.21,3.21,0,0,0,.84-2.49V54.79h-1.43v4.93Zm77.18-4.95-2.88,3.56-2.74-3.56H306.3l3.84,4.92v3.67h1.45V59.67l3.87-4.9Zm-27.85,0h-1.49v8.6h7.13V62h-5.64V54.77Zm-21.44,6-2-6,0-.06h-1.22l-2,6-2-6,0-.06h-1.48l2.93,8.65h1.05L261.87,57l2.1,6.31,0,.05h1.07l2.87-8.55,0-.11h-1.47l-2,6Zm36.14-2.06a3.39,3.39,0,0,1-.45.09h-3.59V56.19h3.27a3,3,0,0,1,.79.1,1.32,1.32,0,0,1,1,1.19,1.33,1.33,0,0,1-1,1.21Zm.57,1.35a2.58,2.58,0,0,0,1.89-2.9,2.63,2.63,0,0,0-2.23-2.28,9.92,9.92,0,0,0-1.17-.08h-4.48v8.64h1.38v-3.2h2l2.92,3.18,0,0h1.89l-3-3.26a5.7,5.7,0,0,0,.76-.12Zm-57,3.33h7.13V62h-5.71v-2.4h5v-1.4h-5V56.15h5.71V54.77h-7.13v8.6Z"/></g></g></svg>