<svg xmlns="http://www.w3.org/2000/svg" viewBox="0 0 52.34 52.29"><defs><style>.cls-1{fill:#1d1d1b;fill-rule:evenodd;}</style></defs><title>Ресурс 1</title><g id="Слой_2" data-name="Слой 2"><g id="Слой_1-2" data-name="Слой 1"><path id="star" class="cls-1" d="M32.84,34.27c-4.09,4.51-6.24,10.69-6.67,18h-.23c-.43-7.33-2.58-13.51-6.67-18h0a21.9,21.9,0,0,0-4.78-4A31.48,31.48,0,0,0,0,26.26V26a31,31,0,0,0,15-4.37C21.89,17.17,25.38,9.56,25.94,0h.24c.64,11,5.18,19.45,14.34,23.49h0l0,0,.4.17A35.45,35.45,0,0,0,52.34,26v0h0v.15h0v0a34.1,34.1,0,0,0-10.8,2.19c-.41.17-.81.31-1.19.43a22.45,22.45,0,0,0-7.52,5.39Zm2.77-8.12h0v0c-2.82,0-9.43-6.77-9.43-9.49h-.05c0,2.71-6.61,9.49-9.43,9.49v0h0v0c2.82,0,9.43,6.77,9.43,9.49h.05c0-2.72,6.61-9.49,9.43-9.49v0Z"/></g></g></svg>